<svg enable-background="new 0 0 532.65 193.53" viewBox="0 0 532.65 193.53" xmlns="http://www.w3.org/2000/svg" xmlns:xlink="http://www.w3.org/1999/xlink"><defs><linearGradient id="a" gradientUnits="userSpaceOnUse" x1="193.3119" x2="519.7701" y1="136.3213" y2="136.3213"><stop offset="0" stop-color="#821824"/><stop offset=".139" stop-color="#9f1d28"/><stop offset=".2824" stop-color="#b7202a"/><stop offset=".4107" stop-color="#c7202b"/><stop offset=".5102" stop-color="#cd202b"/><stop offset=".6047" stop-color="#c5202b"/><stop offset=".7497" stop-color="#b01f2a"/><stop offset=".9261" stop-color="#901b26"/><stop offset="1" stop-color="#821824"/></linearGradient><linearGradient id="b" gradientUnits="userSpaceOnUse" x1="345.3947" x2="519.8704" y1="77.5112" y2="77.5112"><stop offset="0" stop-color="#273a79"/><stop offset="1" stop-color="#4b8fc7"/></linearGradient><clipPath id="c"><circle cx="96.91" cy="99.39" r="83.32"/></clipPath><clipPath id="d"><use xlink:href="#f"/></clipPath><clipPath id="e"><use xlink:href="#g"/></clipPath><path id="f" d="m136.39 123.5c7.04-7.04 6.63-18.75-1.22-25.25-6.84-5.66-17-4.82-23.28 1.47l-6.58 6.58-6.94 6.94c-7.96 7.96-18.41 11.93-28.86 11.93s-20.9-3.98-28.85-11.93c-15.91-15.91-15.91-41.8 0-57.71l6.94-6.94c12.55-12.55 3.66-34.01-14.09-34.01-11 0-19.92 8.92-19.92 19.92v126.81c0 11 8.92 19.92 19.92 19.92h36.9c5.28 0 10.35-2.1 14.09-5.83z"/><path id="g" d="m123.42 14.58c-5.28 0-10.35 2.1-14.09 5.83l-51.89 51.9c-6.66 6.66-6.66 17.49 0 24.14s17.49 6.65 24.14 0l6.94-6.94 6.33-6.33c15.7-15.7 41.28-16.7 57.43-1.47 16.79 15.82 17.09 42.37.89 58.57l-6.94 6.94c-12.55 12.55-3.66 34.01 14.09 34.01 11 0 19.92-8.92 19.92-19.92v-126.81c0-11-8.92-19.92-19.92-19.92z"/></defs><path d="m193.36 115.97h326.23c.08.12.16.18.15.25-.1 6.1.59 12.23-.61 18.28-2.28 11.46-12.28 20.61-23.91 21.91-1.23.14-2.47.21-3.7.21-90.04.01-180.08.01-270.12.01-15.43 0-28.02-12.55-28.03-27.95-.01-4.2-.01-8.39-.01-12.71z"/><path d="m278.84 77.97c0-16.33 13.23-29.61 29.58-29.57 17.17.04 29.9 14.13 29.58 30.15-.32 16.09-13.73 29.23-30.28 28.98-15.7-.24-28.88-13.52-28.88-29.56z"/><path d="m366.29 47.98h12.67v1.32c0 15.3.04 30.6-.05 45.9-.01 2.11-.44 4.3-1.14 6.3-1.15 3.28-3.86 5.18-7.2 5.33-5.69.26-11.43.34-17.11-.11-4.46-.35-7.11-3.52-7.78-8.01-.17-1.14-.26-2.3-.26-3.46-.02-15.26-.01-30.52-.01-45.78 0-.47 0-.95 0-1.49h12.67v1.43 46.02c0 2.17.41 2.57 2.6 2.58 1.12 0 2.24.01 3.36 0 1.61-.03 2.23-.64 2.23-2.28.01-4.43 0-8.87 0-13.3 0-10.99 0-21.97 0-32.96.02-.48.02-.95.02-1.49z"/><path d="m194.07 90.03h11.97v5.83c0 1.89.5 2.38 2.42 2.39 1.48 0 2.96.02 4.44-.01 1.38-.02 2.03-.6 2.04-1.95.03-3.67.03-7.35 0-11.02-.01-1.35-.67-1.95-2.02-1.96-2.8-.02-5.6.02-8.39-.05-6.22-.16-9.8-3.05-10.3-9.22-.45-5.59-.45-11.28-.01-16.87.49-6.12 3.91-8.98 10.18-9.22 4.07-.16 8.16-.12 12.23.07 5.44.26 8.58 3.07 9.42 8.42.39 2.46.31 4.99.46 7.69-2.19 0-4.17 0-6.15 0-1.95 0-3.91 0-6.05 0 0-1.42.01-2.77 0-4.11-.02-1.71-.52-2.2-2.23-2.2-1.4 0-2.8-.02-4.2 0-1.22.02-1.83.61-1.84 1.85-.02 3.36-.02 6.71 0 10.07.01 1.31.64 1.88 2.07 1.89 3 .04 6-.06 8.99.11 5.95.34 9.54 3.89 9.76 9.88.2 5.46.21 10.95-.01 16.41-.25 6.19-4.03 9.72-10.25 9.86-4.07.09-8.15.09-12.23 0-6.19-.14-9.82-3.56-10.27-9.73-.19-2.65-.03-5.33-.03-8.13z"/><path d="m259.09 88.55h11.89c.06.13.15.23.15.34-.03 3.23.1 6.48-.15 9.69-.42 5.42-3.43 8.73-8.84 9.14-5.08.39-10.24.41-15.32.04-5.91-.43-8.83-3.84-9.32-9.89-.04-.52-.04-1.04-.04-1.56 0-12.3-.02-24.6.02-36.9.01-1.46.19-2.96.55-4.38.96-3.75 3.37-6.45 7.23-6.71 5.84-.4 11.74-.52 17.57-.1 4.67.34 7.31 3.35 7.96 8.07.41 2.94.34 5.94.5 8.97-4.19 0-8.1 0-12.21 0 0-1.56-.03-3.1.01-4.64.09-4.32-.1-4.15-4.17-4.1-.92.01-1.84-.01-2.76 0-1.46.02-2.03.57-2.03 2.04-.01 4.27 0 8.55 0 12.82v25.4c0 1.94.54 2.48 2.49 2.49 1.44.01 2.88.02 4.32-.01 1.56-.03 2.14-.65 2.15-2.22.01-2.77 0-5.56 0-8.49z"/><path d="m501.15 71.64c2.25-7.89 4.51-15.77 6.77-23.69h11.96c-.78 2.35-1.52 4.6-2.28 6.84-3.34 9.86-6.68 19.71-10.01 29.57-.16.48-.22 1.01-.22 1.52-.01 6.31-.01 12.62-.01 18.93v1.35c-4.25 0-8.39 0-12.67 0 0-.48 0-.91 0-1.33 0-6.23.01-12.46-.02-18.69 0-.78-.13-1.59-.38-2.33-3.9-11.6-7.83-23.19-11.75-34.78-.1-.3-.18-.61-.3-1.01.34-.04.64-.11.94-.11 3.32-.01 6.64.02 9.95-.02.78-.01 1.09.26 1.3 1.01 2.04 7.25 4.12 14.49 6.2 21.74.1.34.21.68.32 1.02.05-.01.13-.01.2-.02z"/><path d="m476.38 48.01v10.93c-4.53 0-8.99 0-13.53 0v13.73h12.63v10.72c-4.22 0-8.39 0-12.7 0v22.79c-4.24 0-8.35 0-12.54 0 0-19.36 0-38.71 0-58.16 8.66-.01 17.34-.01 26.14-.01z"/><path d="m408.57 58.79v47.37c-4.25 0-8.38 0-12.68 0 0-15.74 0-31.48 0-47.36-3.2 0-6.26 0-9.38 0 0-3.67 0-7.21 0-10.82h31.37v10.81c-3.09 0-6.15 0-9.31 0z"/><path d="m426.1 47.98h12.42v58.19c-4.12 0-8.21 0-12.42 0 0-19.37 0-38.75 0-58.19z"/><path d="m193.36 115.97h326.23c.08.12.16.18.15.25-.1 6.1.59 12.23-.61 18.28-2.28 11.46-12.28 20.61-23.91 21.91-1.23.14-2.47.21-3.7.21-90.04.01-180.08.01-270.12.01-15.43 0-28.02-12.55-28.03-27.95-.01-4.2-.01-8.39-.01-12.71z" fill="#231f20"/><path d="m278.84 77.97c0-16.33 13.23-29.61 29.58-29.57 17.17.04 29.9 14.13 29.58 30.15-.32 16.09-13.73 29.23-30.28 28.98-15.7-.24-28.88-13.52-28.88-29.56z" fill="#231f20"/><path d="m366.29 47.98h12.67v1.32c0 15.3.04 30.6-.05 45.9-.01 2.11-.44 4.3-1.14 6.3-1.15 3.28-3.86 5.18-7.2 5.33-5.69.26-11.43.34-17.11-.11-4.46-.35-7.11-3.52-7.78-8.01-.17-1.14-.26-2.3-.26-3.46-.02-15.26-.01-30.52-.01-45.78 0-.47 0-.95 0-1.49h12.67v1.43 46.02c0 2.17.41 2.57 2.6 2.58 1.12 0 2.24.01 3.36 0 1.61-.03 2.23-.64 2.23-2.28.01-4.43 0-8.87 0-13.3 0-10.99 0-21.97 0-32.96.02-.48.02-.95.02-1.49z" fill="#231f20"/><path d="m194.07 90.03h11.97v5.83c0 1.89.5 2.38 2.42 2.39 1.48 0 2.96.02 4.44-.01 1.38-.02 2.03-.6 2.04-1.95.03-3.67.03-7.35 0-11.02-.01-1.35-.67-1.95-2.02-1.96-2.8-.02-5.6.02-8.39-.05-6.22-.16-9.8-3.05-10.3-9.22-.45-5.59-.45-11.28-.01-16.87.49-6.12 3.91-8.98 10.18-9.22 4.07-.16 8.16-.12 12.23.07 5.44.26 8.58 3.07 9.42 8.42.39 2.46.31 4.99.46 7.69-2.19 0-4.17 0-6.15 0-1.95 0-3.91 0-6.05 0 0-1.42.01-2.77 0-4.11-.02-1.71-.52-2.2-2.23-2.2-1.4 0-2.8-.02-4.2 0-1.22.02-1.83.61-1.84 1.85-.02 3.36-.02 6.71 0 10.07.01 1.31.64 1.88 2.07 1.89 3 .04 6-.06 8.99.11 5.95.34 9.54 3.89 9.76 9.88.2 5.46.21 10.95-.01 16.41-.25 6.19-4.03 9.72-10.25 9.86-4.07.09-8.15.09-12.23 0-6.19-.14-9.82-3.56-10.27-9.73-.19-2.65-.03-5.33-.03-8.13z" fill="#231f20"/><path d="m259.09 88.55h11.89c.06.13.15.23.15.34-.03 3.23.1 6.48-.15 9.69-.42 5.42-3.43 8.73-8.84 9.14-5.08.39-10.24.41-15.32.04-5.91-.43-8.83-3.84-9.32-9.89-.04-.52-.04-1.04-.04-1.56 0-12.3-.02-24.6.02-36.9.01-1.46.19-2.96.55-4.38.96-3.75 3.37-6.45 7.23-6.71 5.84-.4 11.74-.52 17.57-.1 4.67.34 7.31 3.35 7.96 8.07.41 2.94.34 5.94.5 8.97-4.19 0-8.1 0-12.21 0 0-1.56-.03-3.1.01-4.64.09-4.32-.1-4.15-4.17-4.1-.92.01-1.84-.01-2.76 0-1.46.02-2.03.57-2.03 2.04-.01 4.27 0 8.55 0 12.82v25.4c0 1.94.54 2.48 2.49 2.49 1.44.01 2.88.02 4.32-.01 1.56-.03 2.14-.65 2.15-2.22.01-2.77 0-5.56 0-8.49z" fill="#231f20"/><path d="m501.15 71.64c2.25-7.89 4.51-15.77 6.77-23.69h11.96c-.78 2.35-1.52 4.6-2.28 6.84-3.34 9.86-6.68 19.71-10.01 29.57-.16.48-.22 1.01-.22 1.52-.01 6.31-.01 12.62-.01 18.93v1.35c-4.25 0-8.39 0-12.67 0 0-.48 0-.91 0-1.33 0-6.23.01-12.46-.02-18.69 0-.78-.13-1.59-.38-2.33-3.9-11.6-7.83-23.19-11.75-34.78-.1-.3-.18-.61-.3-1.01.34-.04.64-.11.94-.11 3.32-.01 6.64.02 9.95-.02.78-.01 1.09.26 1.3 1.01 2.04 7.25 4.12 14.49 6.2 21.74.1.34.21.68.32 1.02.05-.01.13-.01.2-.02z" fill="#231f20"/><path d="m476.38 48.01v10.93c-4.53 0-8.99 0-13.53 0v13.73h12.63v10.72c-4.22 0-8.39 0-12.7 0v22.79c-4.24 0-8.35 0-12.54 0 0-19.36 0-38.71 0-58.16 8.66-.01 17.34-.01 26.14-.01z" fill="#231f20"/><path d="m408.57 58.79v47.37c-4.25 0-8.38 0-12.68 0 0-15.74 0-31.48 0-47.36-3.2 0-6.26 0-9.38 0 0-3.67 0-7.21 0-10.82h31.37v10.81c-3.09 0-6.15 0-9.31 0z" fill="#231f20"/><path d="m426.1 47.98h12.42v58.19c-4.12 0-8.21 0-12.42 0 0-19.37 0-38.75 0-58.19z" fill="#231f20"/><path d="m193.36 115.97h326.23c.08.12.16.18.15.25-.1 6.1.59 12.23-.61 18.28-2.28 11.46-12.28 20.61-23.91 21.91-1.23.14-2.47.21-3.7.21-90.04.01-180.08.01-270.12.01-15.43 0-28.02-12.55-28.03-27.95-.01-4.2-.01-8.39-.01-12.71z" style="fill:none;stroke:#fff;stroke-width:15;stroke-linecap:round;stroke-linejoin:round;stroke-miterlimit:10"/><path d="m278.84 77.97c0-16.33 13.23-29.61 29.58-29.57 17.17.04 29.9 14.13 29.58 30.15-.32 16.09-13.73 29.23-30.28 28.98-15.7-.24-28.88-13.52-28.88-29.56z" style="fill:none;stroke:#fff;stroke-width:15;stroke-linecap:round;stroke-linejoin:round;stroke-miterlimit:10"/><path d="m366.29 47.98h12.67v1.32c0 15.3.04 30.6-.05 45.9-.01 2.11-.44 4.3-1.14 6.3-1.15 3.28-3.86 5.18-7.2 5.33-5.69.26-11.43.34-17.11-.11-4.46-.35-7.11-3.52-7.78-8.01-.17-1.14-.26-2.3-.26-3.46-.02-15.26-.01-30.52-.01-45.78 0-.47 0-.95 0-1.49h12.67v1.43 46.02c0 2.17.41 2.57 2.6 2.58 1.12 0 2.24.01 3.36 0 1.61-.03 2.23-.64 2.23-2.28.01-4.43 0-8.87 0-13.3 0-10.99 0-21.97 0-32.96.02-.48.02-.95.02-1.49z" style="fill:none;stroke:#fff;stroke-width:15;stroke-linecap:round;stroke-linejoin:round;stroke-miterlimit:10"/><path d="m194.07 90.03h11.97v5.83c0 1.89.5 2.38 2.42 2.39 1.48 0 2.96.02 4.44-.01 1.38-.02 2.03-.6 2.04-1.95.03-3.67.03-7.35 0-11.02-.01-1.35-.67-1.95-2.02-1.96-2.8-.02-5.6.02-8.39-.05-6.22-.16-9.8-3.05-10.3-9.22-.45-5.59-.45-11.28-.01-16.87.49-6.12 3.91-8.98 10.18-9.22 4.07-.16 8.16-.12 12.23.07 5.44.26 8.58 3.07 9.42 8.42.39 2.46.31 4.99.46 7.69-2.19 0-4.17 0-6.15 0-1.95 0-3.91 0-6.05 0 0-1.42.01-2.77 0-4.11-.02-1.71-.52-2.2-2.23-2.2-1.4 0-2.8-.02-4.2 0-1.22.02-1.83.61-1.84 1.85-.02 3.36-.02 6.71 0 10.07.01 1.31.64 1.88 2.07 1.89 3 .04 6-.06 8.99.11 5.95.34 9.54 3.89 9.76 9.88.2 5.46.21 10.95-.01 16.41-.25 6.19-4.03 9.72-10.25 9.86-4.07.09-8.15.09-12.23 0-6.19-.14-9.82-3.56-10.27-9.73-.19-2.65-.03-5.33-.03-8.13z" style="fill:none;stroke:#fff;stroke-width:15;stroke-linecap:round;stroke-linejoin:round;stroke-miterlimit:10"/><path d="m259.09 88.55h11.89c.06.13.15.23.15.34-.03 3.23.1 6.48-.15 9.69-.42 5.42-3.43 8.73-8.84 9.14-5.08.39-10.24.41-15.32.04-5.91-.43-8.83-3.84-9.32-9.89-.04-.52-.04-1.04-.04-1.56 0-12.3-.02-24.6.02-36.9.01-1.46.19-2.96.55-4.38.96-3.75 3.37-6.45 7.23-6.71 5.84-.4 11.74-.52 17.57-.1 4.67.34 7.31 3.35 7.96 8.07.41 2.94.34 5.94.5 8.97-4.19 0-8.1 0-12.21 0 0-1.56-.03-3.1.01-4.64.09-4.32-.1-4.15-4.17-4.1-.92.01-1.84-.01-2.76 0-1.46.02-2.03.57-2.03 2.04-.01 4.27 0 8.55 0 12.82v25.4c0 1.94.54 2.48 2.49 2.49 1.44.01 2.88.02 4.32-.01 1.56-.03 2.14-.65 2.15-2.22.01-2.77 0-5.56 0-8.49z" style="fill:none;stroke:#fff;stroke-width:15;stroke-linecap:round;stroke-linejoin:round;stroke-miterlimit:10"/><path d="m501.15 71.64c2.25-7.89 4.51-15.77 6.77-23.69h11.96c-.78 2.35-1.52 4.6-2.28 6.84-3.34 9.86-6.68 19.71-10.01 29.57-.16.48-.22 1.01-.22 1.52-.01 6.31-.01 12.62-.01 18.93v1.35c-4.25 0-8.39 0-12.67 0 0-.48 0-.91 0-1.33 0-6.23.01-12.46-.02-18.69 0-.78-.13-1.59-.38-2.33-3.9-11.6-7.83-23.19-11.75-34.78-.1-.3-.18-.61-.3-1.01.34-.04.64-.11.94-.11 3.32-.01 6.64.02 9.95-.02.78-.01 1.09.26 1.3 1.01 2.04 7.25 4.12 14.49 6.2 21.74.1.34.21.68.32 1.02.05-.01.13-.01.2-.02z" style="fill:none;stroke:#fff;stroke-width:15;stroke-linecap:round;stroke-linejoin:round;stroke-miterlimit:10"/><path d="m476.38 48.01v10.93c-4.53 0-8.99 0-13.53 0v13.73h12.63v10.72c-4.22 0-8.39 0-12.7 0v22.79c-4.24 0-8.35 0-12.54 0 0-19.36 0-38.71 0-58.16 8.66-.01 17.34-.01 26.14-.01z" style="fill:none;stroke:#fff;stroke-width:15;stroke-linecap:round;stroke-linejoin:round;stroke-miterlimit:10"/><path d="m408.57 58.79v47.37c-4.25 0-8.38 0-12.68 0 0-15.74 0-31.48 0-47.36-3.2 0-6.26 0-9.38 0 0-3.67 0-7.21 0-10.82h31.37v10.81c-3.09 0-6.15 0-9.31 0z" style="fill:none;stroke:#fff;stroke-width:15;stroke-linecap:round;stroke-linejoin:round;stroke-miterlimit:10"/><path d="m426.1 47.98h12.42v58.19c-4.12 0-8.21 0-12.42 0 0-19.37 0-38.75 0-58.19z" style="fill:none;stroke:#fff;stroke-width:15;stroke-linecap:round;stroke-linejoin:round;stroke-miterlimit:10"/><circle cx="308.38" cy="77.93" fill="#cd202b" r="28.32" stroke="#263c79" stroke-miterlimit="10" stroke-width="2.5173"/><path d="m313.19 66.03c-5.55-6.23-15.11-6.79-21.34-1.23s-6.79 15.11-1.23 21.34c4.33 4.86 11.28 6.4 17.26 3.83-7.18 1.08-13.88-3.86-14.96-11.04s3.86-13.88 11.04-14.96c3.22-.48 6.51.25 9.23 2.06zm-2.95 3.59 5.23 9.47-8.75 6.37 10.62-2.04 3.35 10.29 1.34-10.74 10.82-.01-9.8-4.59 3.33-10.29-7.39 7.9z" fill="#fff"/><path d="m491.7 156.68h-270.32c-15.5 0-28.07-12.57-28.07-28.07v-12.64h326.46v12.64c0 15.5-12.57 28.07-28.07 28.07z" fill="url(#a)"/><path d="m226.24 64.13h-11.97v-4.59c0-.48-.17-.9-.5-1.26s-.74-.54-1.22-.54h-4.95c-.48 0-.89.18-1.22.54s-.5.78-.5 1.26v10.35c0 .48.16.9.5 1.26.33.36.73.54 1.22.54h8.1c7.44.12 11.16 4.08 11.16 11.88v12.51c0 7.92-3.72 11.88-11.16 11.88h-10.62c-7.44 0-11.16-3.96-11.16-11.88v-6.03h11.97v6.48c0 .48.16.9.5 1.26.33.36.73.54 1.22.54h5.58c.48 0 .88-.18 1.22-.54.33-.36.5-.78.5-1.26v-11.43c0-.48-.17-.9-.5-1.26s-.74-.54-1.22-.54h-8.1c-7.44 0-11.16-3.96-11.16-11.88v-11.62c0-7.92 3.72-11.88 11.16-11.88h9.99c7.44 0 11.16 3.96 11.16 11.88z" fill="#273a79"/><path d="m259.1 97.53v-9h11.97v7.56c0 7.92-3.72 11.88-11.16 11.88h-11.34c-7.44 0-11.16-3.96-11.16-11.88v-36.29c0-7.92 3.72-11.88 11.16-11.88h11.34c7.44 0 11.16 3.96 11.16 11.88v5.49h-11.97v-7.02c0-.48-.17-.9-.5-1.26s-.74-.54-1.21-.54h-5.67c-.48 0-.89.18-1.22.54s-.5.78-.5 1.26v39.25c0 .48.17.9.5 1.26s.73.54 1.22.54h5.67c.48 0 .88-.18 1.21-.54.33-.35.5-.77.5-1.25z" fill="#273a79"/><g fill="#fff"><path d="m219.76 127.06h3.89v14.59c0 2.45-1.15 3.67-3.45 3.67h-3.22c-2.3 0-3.45-1.22-3.45-3.67v-2.25h3.7v2.7c0 .15.05.28.15.39s.23.17.38.17h1.47c.15 0 .27-.06.38-.17.1-.11.15-.24.15-.39z"/><path d="m238.77 130.45v11.2c0 2.45-1.15 3.67-3.45 3.67h-3.7c-2.3 0-3.45-1.22-3.45-3.67v-11.2c0-2.45 1.15-3.67 3.45-3.67h3.7c2.3.01 3.45 1.23 3.45 3.67zm-3.89 11.65v-12.12c0-.15-.05-.28-.15-.39s-.23-.17-.38-.17h-1.75c-.15 0-.27.06-.38.17-.1.11-.15.24-.15.39v12.12c0 .15.05.28.15.39s.23.17.38.17h1.75c.15 0 .27-.06.38-.17.1-.11.15-.24.15-.39z"/><path d="m247.75 137.98v7.06h-3.89v-17.98h3.89v7.53h3.08v-7.53h3.89v17.98h-3.89v-7.06z"/><path d="m270.31 130.45v11.2c0 2.45-1.15 3.67-3.45 3.67h-3.7c-2.3 0-3.45-1.22-3.45-3.67v-11.2c0-2.45 1.15-3.67 3.45-3.67h3.7c2.3.01 3.45 1.23 3.45 3.67zm-3.89 11.65v-12.12c0-.15-.05-.28-.15-.39s-.23-.17-.38-.17h-1.75c-.15 0-.27.06-.38.17s-.15.24-.15.39v12.12c0 .15.05.28.15.39s.23.17.38.17h1.75c.15 0 .27-.06.38-.17s.15-.24.15-.39z"/><path d="m279.29 137.68v7.36h-3.89v-17.98h6.92c2.3 0 3.45 1.22 3.45 3.67v2.08c0 1.48-.53 2.43-1.58 2.83.93.33 1.39 1.09 1.39 2.28v7.11h-3.89v-6.81c0-.37-.18-.56-.53-.56h-1.87zm0-7.98v5.25h2.06c.15 0 .27-.06.38-.17.1-.11.15-.24.15-.39v-4.14c0-.15-.05-.28-.15-.39s-.23-.17-.38-.17h-2.06z"/><path d="m308.3 131.79h-3.7v-1.42c0-.15-.05-.28-.15-.39s-.23-.17-.38-.17h-1.53c-.15 0-.27.06-.38.17-.1.11-.15.24-.15.39v3.2c0 .15.05.28.15.39s.23.17.38.17h2.5c2.3.04 3.45 1.26 3.45 3.67v3.86c0 2.45-1.15 3.67-3.45 3.67h-3.28c-2.3 0-3.45-1.22-3.45-3.67v-1.86h3.7v2c0 .15.05.28.15.39s.23.17.38.17h1.72c.15 0 .27-.06.38-.17.1-.11.15-.24.15-.39v-3.53c0-.15-.05-.28-.15-.39s-.23-.17-.38-.17h-2.5c-2.3 0-3.45-1.22-3.45-3.67v-3.58c0-2.45 1.15-3.67 3.45-3.67h3.08c2.3 0 3.45 1.22 3.45 3.67v1.33z"/><path d="m319.97 142.1v-2.78h3.7v2.33c0 2.45-1.15 3.67-3.45 3.67h-3.5c-2.3 0-3.45-1.22-3.45-3.67v-11.2c0-2.45 1.15-3.67 3.45-3.67h3.5c2.3 0 3.45 1.22 3.45 3.67v1.7h-3.7v-2.17c0-.15-.05-.28-.15-.39s-.23-.17-.38-.17h-1.75c-.15 0-.27.06-.38.17s-.15.24-.15.39v12.12c0 .15.05.28.15.39s.23.17.38.17h1.75c.15 0 .27-.06.38-.17s.15-.24.15-.39z"/><path d="m338.81 130.45v11.2c0 2.45-1.15 3.67-3.45 3.67h-3.7c-2.3 0-3.45-1.22-3.45-3.67v-11.2c0-2.45 1.15-3.67 3.45-3.67h3.7c2.3.01 3.45 1.23 3.45 3.67zm-3.89 11.65v-12.12c0-.15-.05-.28-.15-.39s-.23-.17-.38-.17h-1.75c-.15 0-.27.06-.38.17s-.15.24-.15.39v12.12c0 .15.05.28.15.39s.23.17.38.17h1.75c.15 0 .27-.06.38-.17s.15-.24.15-.39z"/><path d="m350.32 127.06h3.89v14.59c0 2.45-1.15 3.67-3.45 3.67h-3.45c-2.3 0-3.45-1.22-3.45-3.67v-14.59h3.89v14.92c0 .15.05.28.15.39s.23.17.38.17h1.5c.15 0 .27-.06.38-.17.1-.11.15-.24.15-.39v-14.92z"/><path d="m358.07 130.37v-3.31h9.73v3.31h-2.92v14.67h-3.89v-14.67z"/><path d="m386.78 127.06c2.3 0 3.45 1.22 3.45 3.67v10.64c0 2.45-1.15 3.67-3.45 3.67h-7.14v-17.98zm-.45 14.76v-11.56c0-.15-.05-.28-.15-.39s-.23-.17-.38-.17h-2.28v12.67h2.28c.15 0 .27-.06.38-.17.1-.1.15-.23.15-.38z"/><path d="m399.23 127.06v17.98h-3.89v-17.98z"/><path d="m409.59 137.9v-2.86h5.14v6.61c0 2.45-1.15 3.67-3.45 3.67h-3.5c-2.3 0-3.45-1.22-3.45-3.67v-11.2c0-2.45 1.15-3.67 3.45-3.67h3.5c2.3 0 3.45 1.22 3.45 3.67v1.7h-3.7v-2.17c0-.15-.05-.28-.15-.39s-.23-.17-.38-.17h-1.75c-.15 0-.27.06-.38.17s-.15.24-.15.39v12.12c0 .15.05.28.15.39s.23.17.38.17h1.75c.15 0 .27-.06.38-.17s.15-.24.15-.39v-4.2z"/><path d="m422.99 127.06v17.98h-3.89v-17.98z"/><path d="m427.07 130.37v-3.31h9.73v3.31h-2.92v14.67h-3.89v-14.67z"/><path d="m447.94 126.79c2.3 0 3.45 1.22 3.45 3.67v14.59h-3.89v-6.03h-2.81v6.03h-3.89v-14.59c0-2.45 1.15-3.67 3.45-3.67zm-3.25 9.22h2.81v-6.03c0-.15-.05-.28-.15-.39s-.23-.17-.38-.17h-1.75c-.15 0-.27.06-.38.17s-.15.24-.15.39z"/><path d="m460.39 141.76h4.25v3.28h-8.14v-17.98h3.89z"/><path d="m480.43 127.06v17.98h-3.89v-17.98z"/><path d="m492.68 127.06c2.3 0 3.45 1.22 3.45 3.67v10.64c0 2.45-1.15 3.67-3.45 3.67h-7.14v-17.98zm-.44 14.76v-11.56c0-.15-.05-.28-.15-.39s-.23-.17-.38-.17h-2.28v12.67h2.28c.15 0 .27-.06.38-.17.1-.1.15-.23.15-.38z"/></g><path d="m366.28 47.94h12.6v47.26c0 7.92-3.72 11.88-11.16 11.88h-11.16c-7.44 0-11.16-3.96-11.16-11.88v-47.26h12.6v48.35c0 .48.17.9.5 1.26s.73.54 1.22.54h4.86c.48 0 .88-.18 1.21-.54s.5-.78.5-1.26v-48.35z"/><path d="m386.45 58.65v-10.71h31.51v10.71h-9.45v47.54h-12.6v-47.54z"/><path d="m438.58 47.94v58.25h-12.6v-58.25z"/><path d="m462.79 83.32v22.87h-12.6v-58.25h26.29v10.89h-13.68v13.95h12.78v10.53h-12.79z"/><path d="m519.87 47.94-12.51 37v21.25h-12.6v-21.25l-12.51-37h11.88l6.93 24.31 6.93-24.31z"/><path d="m366.28 47.94h12.6v47.26c0 7.92-3.72 11.88-11.16 11.88h-11.16c-7.44 0-11.16-3.96-11.16-11.88v-47.26h12.6v48.35c0 .48.17.9.5 1.26s.73.54 1.22.54h4.86c.48 0 .88-.18 1.21-.54s.5-.78.5-1.26v-48.35z" fill="url(#b)"/><path d="m386.45 58.65v-10.71h31.51v10.71h-9.45v47.54h-12.6v-47.54z" fill="url(#b)"/><path d="m438.58 47.94v58.25h-12.6v-58.25z" fill="url(#b)"/><path d="m462.79 83.32v22.87h-12.6v-58.25h26.29v10.89h-13.68v13.95h12.78v10.53h-12.79z" fill="url(#b)"/><path d="m519.87 47.94-12.51 37v21.25h-12.6v-21.25l-12.51-37h11.88l6.93 24.31 6.93-24.31z" fill="url(#b)"/><path d="m52.79 28.88c1.05 3.6 1.15 7.08.28 10.6-.92 3.71-2.9 6.78-5.55 9.49-3.4 3.48-7.06 6.78-10.06 10.59-12.39 15.71-11.15 38.4 2.67 52.86 15.91 16.65 42.12 16.95 58.41.67 4.44-4.43 8.86-8.88 13.32-13.3 6.4-6.35 16.12-7.18 22.96-1.99 8.11 6.16 9.1 18.26 1.91 25.47-17.4 17.47-34.86 34.87-52.31 52.29-.68.67-1.45 1.26-2.2 1.85-2.9 2.28-5.86 2.97-9.62 1.67-30.26-10.38-49.88-30.85-56.82-62.05-6.24-28 1.09-53.03 20.34-74.42 4.56-5.07 9.83-9.35 15.55-13.07.33-.21.67-.39 1.12-.66z"/><path d="m142.19 169.35c-2.26-5.63-2.5-11.14.16-16.47 1.12-2.24 2.76-4.29 4.45-6.17 2.5-2.79 5.35-5.27 7.89-8.04 14.17-15.46 13.96-39.78-.42-55.02-15.36-16.28-40.92-17.14-57.74-1.78-5.07 4.63-9.77 9.67-14.65 14.51-8.14 8.07-21.41 6.32-27.09-3.56-3.74-6.49-2.71-14.98 2.66-20.36 17.38-17.43 34.82-34.81 52.22-52.21 1.83-1.83 3.61-2.72 6.52-2.01 32.49 8.01 56.51 33.15 62.82 66.01 6.25 32.53-8.34 66.74-36.13 84.7-.18.11-.36.2-.69.4z"/><path d="m52.79 28.88c1.05 3.6 1.15 7.08.28 10.6-.92 3.71-2.9 6.78-5.55 9.49-3.4 3.48-7.06 6.78-10.06 10.59-12.39 15.71-11.15 38.4 2.67 52.86 15.91 16.65 42.12 16.95 58.41.67 4.44-4.43 8.86-8.88 13.32-13.3 6.4-6.35 16.12-7.18 22.96-1.99 8.11 6.16 9.1 18.26 1.91 25.47-17.4 17.47-34.86 34.87-52.31 52.29-.68.67-1.45 1.26-2.2 1.85-2.9 2.28-5.86 2.97-9.62 1.67-30.26-10.38-49.88-30.85-56.82-62.05-6.24-28 1.09-53.03 20.34-74.42 4.56-5.07 9.83-9.35 15.55-13.07.33-.21.67-.39 1.12-.66z" fill="#231f20"/><path d="m142.19 169.35c-2.26-5.63-2.5-11.14.16-16.47 1.12-2.24 2.76-4.29 4.45-6.17 2.5-2.79 5.35-5.27 7.89-8.04 14.17-15.46 13.96-39.78-.42-55.02-15.36-16.28-40.92-17.14-57.74-1.78-5.07 4.63-9.77 9.67-14.65 14.51-8.14 8.07-21.41 6.32-27.09-3.56-3.74-6.49-2.71-14.98 2.66-20.36 17.38-17.43 34.82-34.81 52.22-52.21 1.83-1.83 3.61-2.72 6.52-2.01 32.49 8.01 56.51 33.15 62.82 66.01 6.25 32.53-8.34 66.74-36.13 84.7-.18.11-.36.2-.69.4z" fill="#231f20"/><path d="m52.79 28.88c1.05 3.6 1.15 7.08.28 10.6-.92 3.71-2.9 6.78-5.55 9.49-3.4 3.48-7.06 6.78-10.06 10.59-12.39 15.71-11.15 38.4 2.67 52.86 15.91 16.65 42.12 16.95 58.41.67 4.44-4.43 8.86-8.88 13.32-13.3 6.4-6.35 16.12-7.18 22.96-1.99 8.11 6.16 9.1 18.26 1.91 25.47-17.4 17.47-34.86 34.87-52.31 52.29-.68.67-1.45 1.26-2.2 1.85-2.9 2.28-5.86 2.97-9.62 1.67-30.26-10.38-49.88-30.85-56.82-62.05-6.24-28 1.09-53.03 20.34-74.42 4.56-5.07 9.83-9.35 15.55-13.07.33-.21.67-.39 1.12-.66z" fill="none" stroke="#fff" stroke-miterlimit="10" stroke-width="24"/><path d="m142.19 169.35c-2.26-5.63-2.5-11.14.16-16.47 1.12-2.24 2.76-4.29 4.45-6.17 2.5-2.79 5.35-5.27 7.89-8.04 14.17-15.46 13.96-39.78-.42-55.02-15.36-16.28-40.92-17.14-57.74-1.78-5.07 4.63-9.77 9.67-14.65 14.51-8.14 8.07-21.41 6.32-27.09-3.56-3.74-6.49-2.71-14.98 2.66-20.36 17.38-17.43 34.82-34.81 52.22-52.21 1.83-1.83 3.61-2.72 6.52-2.01 32.49 8.01 56.51 33.15 62.82 66.01 6.25 32.53-8.34 66.74-36.13 84.7-.18.11-.36.2-.69.4z" fill="none" stroke="#fff" stroke-miterlimit="10" stroke-width="24"/><g clip-path="url(#c)"><use fill="#cd202b" xlink:href="#f"/><ellipse clip-path="url(#d)" cx="27.93" cy="45.1" fill="#6d0e1d" rx="67.44" ry="97.85" transform="matrix(.6398 -.7686 .7686 .6398 -24.5965 37.7125)"/><use fill="#2c4384" xlink:href="#g"/><ellipse clip-path="url(#e)" cx="163.21" cy="151.96" fill="#1b224e" rx="67.44" ry="97.36" transform="matrix(.6398 -.7686 .7686 .6398 -58.0003 180.1791)"/></g><image height="320" overflow="visible" transform="matrix(.0824 0 0 .0824 105.0317 26.7428)" width="320" xlink:href="../../scoutify logo/pengakap logo rasmi.png"/></svg>